<svg width="123" height="40" viewBox="0 0 123 40" fill="none" xmlns="http://www.w3.org/2000/svg">
<g clip-path="url(#clip0_1120_5106)">
<path fill-rule="evenodd" clip-rule="evenodd" d="M19.9994 3.96567V3.96681C20.6997 3.96681 21.3897 4.14993 21.9966 4.49785L26.0154 6.79943C26.59 7.12904 26.6754 7.65093 26.6754 7.93362C26.6754 8.21631 26.59 8.73934 26.0154 9.06781L15.9921 14.804L7.99836 10.2249L18.0021 4.49671C18.6078 4.14993 19.299 3.96567 19.9994 3.96567ZM19.9994 0C18.6194 0 17.2394 0.353648 16.0025 1.06209L0 10.2249L15.9909 19.3843L15.9922 19.3835L19.9972 21.6779L23.9975 19.3878L19.9983 17.0976L30.0124 11.3626C30.6147 11.0169 31.3024 10.835 31.9982 10.835C32.6939 10.835 33.3816 11.0169 33.9851 11.3626L36.0008 12.5174L40 10.2272L35.9847 7.92796C34.7512 7.22067 33.3747 6.86816 31.9982 6.86816C31.5272 6.86816 31.0564 6.90943 30.5913 6.99201C30.3325 5.54988 29.4737 4.19913 28.015 3.36366L23.9962 1.06209C22.7597 0.353845 21.3801 0.000196603 19.9994 0ZM19.9982 26.2615L0 14.8086V19.39L20.0005 30.8429L39.9964 19.39L39.9999 14.8109L19.9982 26.2615ZM19.9982 35.4186L0 23.9657V28.5471L20.0005 40L39.9964 28.5471L39.9999 23.968L19.9982 35.4186Z" fill="#026EF4"/>
</g>
<path d="M115.487 16.8C112.511 16.8 110.911 14.88 110.911 12.4C110.911 9.936 112.543 8 115.487 8C118.383 8 120.175 9.872 119.935 13.12H113.231C113.439 14.32 114.191 15.024 115.631 15.024C116.511 15.024 117.199 14.752 117.503 14.08H119.695C119.359 15.536 117.887 16.8 115.487 16.8ZM113.199 11.728H117.695C117.455 10.288 116.719 9.712 115.487 9.712C114.127 9.712 113.375 10.432 113.199 11.728Z" fill="white"/>
<path d="M100.936 16.56V5.19995H103.24V12.016L103.192 13.504H103.256L104.392 12.048L107.464 8.23995H110.136L106.856 12.128L110.616 16.56H107.912L105.512 13.712L103.112 16.56H100.936Z" fill="white"/>
<path d="M93.464 16.8C91.608 16.8 90.52 15.904 90.52 14.16C90.52 12.528 91.48 11.664 93.624 11.664H96.744V10.944C96.744 10.064 96.264 9.728 94.904 9.728C93.624 9.728 93.112 10.016 93.016 10.704H90.984C90.904 8.624 92.504 8 94.936 8C97.864 8 99.064 8.928 99.064 10.768V16.56H97.096L96.888 15.36H96.808C96.184 16.288 94.872 16.8 93.464 16.8ZM92.856 14.048C92.856 14.672 93.256 15.056 94.248 15.056H94.376C95.704 15.056 96.744 14.416 96.744 13.504V13.104H93.992C93.256 13.104 92.856 13.424 92.856 14.048Z" fill="white"/>
<path d="M87.524 16.6399C85.22 16.6399 84.468 15.5999 84.468 13.7599V10.2079H82.644V8.23993H84.468V5.67993H86.788V8.23993H89.412V10.2079H86.788V13.4399C86.788 14.3039 87.092 14.5759 87.956 14.5759H89.412V16.6399H87.524Z" fill="white"/>
<path d="M77.6755 16.8C75.6595 16.8 73.7395 16.336 73.7075 14.08H75.8035C75.8835 14.832 76.5395 15.088 77.7555 15.088C79.0355 15.088 79.5795 14.816 79.5795 14.144C79.5795 13.584 79.2275 13.376 78.4275 13.296L76.4915 13.12C74.6995 12.96 73.7875 12.192 73.7875 10.688C73.7875 8.928 75.0355 8 77.8195 8C79.6435 8 81.5635 8.416 81.5955 10.688H79.5155C79.4355 10.016 78.9395 9.696 77.7235 9.696C76.6195 9.696 76.0275 9.952 76.0275 10.624C76.0275 11.152 76.3795 11.392 77.2115 11.472L79.1315 11.648C80.9395 11.824 81.8355 12.464 81.8515 14.016C81.8515 15.872 80.5395 16.8 77.6755 16.8Z" fill="white"/>
<path d="M68.0335 16.8C65.0575 16.8 63.4575 14.88 63.4575 12.4C63.4575 9.936 65.0895 8 68.0335 8C70.9295 8 72.7215 9.872 72.4815 13.12H65.7775C65.9855 14.32 66.7375 15.024 68.1775 15.024C69.0575 15.024 69.7455 14.752 70.0495 14.08H72.2415C71.9055 15.536 70.4335 16.8 68.0335 16.8ZM65.7455 11.728H70.2415C70.0015 10.288 69.2655 9.712 68.0335 9.712C66.6735 9.712 65.9215 10.432 65.7455 11.728Z" fill="white"/>
<path d="M52 16.5599V5.35986H58.144C61.2 5.35986 62.432 7.05586 62.432 9.29586C62.432 10.8159 61.856 12.0959 60.528 12.7359L62.624 16.5599H60.24L58.432 13.2159H58.144H54.368V16.5599H52ZM54.368 11.1039H57.856C59.36 11.1039 60.064 10.5439 60.064 9.29586C60.064 8.03186 59.36 7.45586 57.856 7.45586H54.368V11.1039Z" fill="white"/>
<path d="M114.314 35.2V26.8H121.394V28.156H115.862V30.448H121.154V31.672H115.862V33.844H121.394V35.2H114.314Z" fill="#71717A"/>
<path d="M106.771 35.3801C103.915 35.3801 102.271 33.4361 102.271 31.0001C102.271 28.5641 103.915 26.6201 106.771 26.6201C109.003 26.6201 110.527 27.7601 110.911 29.8361H109.411C108.991 28.5281 108.055 28.0361 106.771 28.0361C104.851 28.0361 103.831 29.3201 103.831 31.0001C103.831 32.6681 104.851 33.9641 106.771 33.9641C108.055 33.9641 108.991 33.4721 109.411 32.1641H110.911C110.527 34.2401 109.003 35.3801 106.771 35.3801Z" fill="#71717A"/>
<path d="M90.9102 35.2V26.8H92.9022L97.2822 33.4H97.3902L97.3782 32.188V26.8H98.9262V35.2H96.9342L92.5422 28.6H92.4462L92.4582 29.812V35.2H90.9102Z" fill="#71717A"/>
<path d="M82.4399 26.8H84.1079L87.8039 35.2H86.1839L85.6679 34.012H80.8799L80.3639 35.2H78.7559L82.4399 26.8ZM81.4199 32.776H85.1279L83.2799 28.504L81.4199 32.776Z" fill="#71717A"/>
<path d="M67.6348 35.2V26.8H69.6268L74.0068 33.4H74.1148L74.1028 32.188V26.8H75.6508V35.2H73.6588L69.2668 28.6H69.1708L69.1828 29.812V35.2H67.6348Z" fill="#71717A"/>
<path d="M62.4424 35.2V26.8H63.9904V35.2H62.4424Z" fill="#71717A"/>
<path d="M52 35.2V26.8H59.08V28.168H53.548V30.604H58.792V31.984H53.548V35.2H52Z" fill="#71717A"/>
<defs>
<clipPath id="clip0_1120_5106">
<rect width="40" height="40" fill="white"/>
</clipPath>
</defs>
</svg>
